<svg id="svg" version="1.1" xmlns="http://www.w3.org/2000/svg" xmlns:xlink="http://www.w3.org/1999/xlink" width="400" height="400" viewBox="0, 0, 400,400"><g id="svgg"><path id="path0" d="M102.301 156.803 C 74.057 168.542,60.179 213.144,72.855 251.437 C 85.922 290.905,118.391 295.711,145.100 262.131 C 146.989 259.756,148.557 257.812,148.584 257.812 C 148.611 257.812,148.577 261.459,148.508 265.918 C 147.713 317.610,179.128 365.030,209.375 357.794 C 243.146 349.716,268.384 278.750,252.004 237.925 C 248.300 228.692,240.002 217.774,237.840 219.289 C 237.342 219.637,236.535 219.922,236.046 219.922 C 235.557 219.922,235.156 220.061,235.156 220.230 C 235.156 220.816,240.162 226.021,242.343 227.704 C 246.003 230.527,245.077 233.426,240.352 233.938 C 231.549 234.891,217.550 229.726,206.963 221.619 C 204.797 219.960,198.828 218.967,198.828 220.266 C 198.828 221.470,192.073 226.240,185.921 229.381 L 182.047 231.360 183.208 232.683 C 188.679 238.914,188.937 263.951,183.646 275.153 C 178.345 286.376,165.961 291.825,159.226 285.896 C 150.497 278.213,152.453 248.807,162.449 237.455 C 164.115 235.563,164.144 235.156,162.611 235.156 C 161.104 235.156,159.491 234.097,159.043 232.813 C 158.468 231.162,158.661 230.846,161.846 228.228 C 164.385 226.140,169.466 220.483,169.097 220.155 C 169.013 220.082,168.393 219.740,167.717 219.397 L 166.488 218.772 163.458 221.944 L 160.428 225.116 157.836 224.281 C 153.094 222.753,150.391 220.665,150.391 218.528 C 150.391 216.861,150.781 216.612,154.905 215.644 C 160.450 214.343,165.590 211.606,166.676 209.375 C 168.628 205.367,167.318 192.877,164.060 184.430 L 162.863 181.326 161.119 181.188 C 160.160 181.111,159.375 181.155,159.375 181.284 C 159.375 181.988,161.033 186.147,162.397 188.867 C 164.127 192.316,164.111 193.389,162.317 194.206 C 157.719 196.301,142.542 183.375,136.912 172.568 C 135.549 169.952,131.319 167.471,130.078 168.560 C 127.439 170.877,110.382 171.494,103.226 169.530 C 94.458 167.125,91.810 162.948,98.119 161.476 C 99.415 161.174,102.043 160.199,103.959 159.308 L 107.443 157.690 106.583 156.774 C 105.526 155.650,105.069 155.653,102.301 156.803 M104.883 174.172 C 110.614 176.804,110.622 181.950,104.924 199.320 C 101.180 210.735,94.463 216.797,85.559 216.797 C 74.445 216.797,72.993 203.869,82.123 186.215 C 87.087 176.616,97.829 170.933,104.883 174.172 M165.141 235.823 C 165.627 235.917,166.330 235.913,166.704 235.815 C 167.077 235.717,166.680 235.641,165.820 235.645 C 164.961 235.650,164.655 235.730,165.141 235.823 " stroke="none" fill="#e65b4b" fill-rule="evenodd"></path><path id="path1" d="M217.423 35.570 C 215.798 36.657,214.509 37.674,214.558 37.830 C 215.019 39.282,211.789 43.482,207.726 46.713 C 189.120 61.513,173.744 79.532,160.939 101.545 C 158.804 105.215,151.953 118.889,151.953 119.480 C 151.953 120.050,151.536 120.037,150.072 119.422 L 148.883 118.922 150.161 116.004 C 155.485 103.844,164.871 88.239,173.647 76.953 C 184.073 63.547,197.124 50.808,210.277 41.200 C 214.124 38.390,214.694 37.918,214.258 37.905 C 214.043 37.898,211.496 39.674,208.598 41.851 C 189.079 56.513,172.904 74.557,159.975 96.094 C 156.567 101.771,148.438 117.643,148.438 118.620 C 148.438 118.994,147.797 119.141,146.165 119.141 C 138.403 119.141,136.143 121.399,129.130 136.169 L 124.482 145.959 122.886 145.404 C 118.876 144.010,113.697 144.988,109.765 147.883 L 107.420 149.609 103.693 149.609 C 101.644 149.609,98.617 149.331,96.967 148.990 C 91.268 147.813,91.116 151.307,96.634 156.627 C 98.397 158.327,98.476 158.359,99.710 157.864 C 100.407 157.585,101.984 156.976,103.215 156.512 L 105.454 155.667 106.460 156.673 L 107.466 157.679 103.970 159.303 C 102.048 160.196,99.415 161.174,98.119 161.476 C 93.518 162.550,93.484 165.275,98.042 167.576 C 105.471 171.326,126.202 171.963,130.078 168.560 C 131.319 167.471,135.549 169.952,136.912 172.568 C 142.542 183.375,157.719 196.301,162.317 194.206 C 164.111 193.389,164.127 192.316,162.397 188.867 C 161.033 186.147,159.375 181.988,159.375 181.284 C 159.375 181.155,160.154 181.111,161.106 181.187 L 162.837 181.324 163.878 183.924 C 165.136 187.067,165.177 187.096,168.359 187.101 C 175.248 187.112,176.531 184.784,171.685 181.071 C 167.247 177.672,165.796 175.731,165.498 172.796 C 165.001 167.892,162.100 163.099,158.432 161.124 C 156.650 160.164,156.410 161.144,160.986 150.662 C 166.172 138.783,166.378 138.187,166.393 135.073 C 166.412 131.319,165.248 128.452,162.692 125.956 L 160.668 123.981 163.749 117.166 C 169.691 104.020,178.723 86.267,181.921 81.445 C 190.875 67.945,202.562 54.483,212.609 46.096 C 215.292 43.856,215.948 43.026,218.222 38.988 C 221.064 33.942,221.509 33.621,223.859 34.914 L 225.257 35.683 223.134 39.423 C 206.543 68.665,197.967 106.402,198.494 147.852 L 198.633 158.789 196.424 158.866 L 194.215 158.943 193.927 154.374 C 192.975 139.303,195.171 110.567,198.440 95.313 C 200.747 84.546,201.145 82.905,202.562 78.320 C 203.359 75.742,204.103 73.193,204.215 72.656 C 204.907 69.343,211.076 54.013,214.331 47.518 C 215.284 45.616,215.976 43.971,215.869 43.864 C 215.592 43.587,212.139 50.570,209.787 56.161 C 198.424 83.175,193.069 113.112,193.430 147.602 L 193.555 159.462 191.406 160.261 C 188.390 161.383,184.451 165.352,183.174 168.555 C 182.264 170.837,182.234 171.270,182.038 185.156 L 181.836 199.414 179.336 199.690 C 174.402 200.234,169.377 203.933,166.974 208.789 C 165.559 211.649,161.074 214.197,154.905 215.644 C 150.781 216.612,150.391 216.861,150.391 218.528 C 150.391 220.665,153.094 222.753,157.836 224.281 L 160.428 225.116 163.458 221.944 L 166.488 218.772 167.717 219.397 C 168.393 219.740,169.013 220.082,169.097 220.155 C 169.466 220.483,164.385 226.140,161.846 228.228 C 158.661 230.846,158.468 231.162,159.043 232.813 C 160.651 237.426,173.553 235.740,186.142 229.272 C 192.170 226.175,198.828 221.449,198.828 220.266 C 198.828 218.967,204.797 219.960,206.963 221.619 C 217.550 229.726,231.549 234.891,240.352 233.938 C 245.077 233.426,246.003 230.527,242.343 227.704 C 240.162 226.021,235.156 220.816,235.156 220.230 C 235.156 220.061,235.557 219.922,236.046 219.922 C 236.535 219.922,237.343 219.636,237.842 219.287 C 238.726 218.667,238.806 218.710,241.230 221.113 L 243.712 223.573 245.391 223.070 C 253.093 220.765,255.821 216.084,250.179 214.851 C 243.172 213.320,239.488 211.430,238.331 208.771 C 236.116 203.683,231.311 200.233,225.315 199.425 L 223.482 199.178 223.358 185.038 C 223.236 171.172,223.216 170.853,222.297 168.555 C 220.564 164.218,214.591 159.375,210.977 159.375 C 208.939 159.375,208.267 108.606,210.123 94.922 C 212.289 78.953,216.580 61.348,220.575 52.035 L 221.294 50.360 224.323 54.432 L 227.353 58.505 226.355 60.428 C 224.036 64.897,220.370 85.763,220.035 96.397 C 218.958 130.609,239.720 154.330,283.170 168.530 C 314.986 178.929,321.494 174.494,321.483 142.424 C 321.466 93.804,303.081 65.383,266.406 57.282 C 257.924 55.408,238.701 53.304,235.547 53.904 C 234.580 54.088,233.684 54.119,233.556 53.974 C 233.428 53.830,231.392 51.144,229.032 48.007 L 224.740 42.303 225.884 39.882 C 227.325 36.833,227.141 36.050,224.663 34.668 C 221.909 33.133,220.875 33.261,217.423 35.570 " stroke="none" fill="#aac94c" fill-rule="evenodd"></path><path id="path2" d="M183.984 1.771 C 149.539 4.823,115.276 16.647,90.374 34.076 C 89.330 34.806,86.982 36.441,85.156 37.709 C 47.406 63.919,16.475 109.255,6.810 152.539 C 4.825 161.428,4.136 165.057,3.286 171.094 C -13.707 291.779,78.571 398.576,199.805 398.532 C 323.552 398.487,416.929 287.261,395.663 165.234 C 378.213 65.096,284.658 -7.149,183.984 1.771 M224.685 34.424 C 227.434 36.188,227.541 36.567,226.146 39.644 C 225.387 41.316,225.089 42.419,225.316 42.710 C 225.511 42.960,227.459 45.570,229.646 48.511 L 233.621 53.858 236.244 53.651 C 244.752 52.980,268.310 56.786,278.125 60.418 C 306.031 70.745,320.511 97.033,321.377 138.941 C 321.846 161.657,319.846 169.151,312.373 172.686 C 303.513 176.878,270.825 166.692,250.959 153.549 C 222.829 134.939,214.824 112.843,222.501 75.000 C 224.719 64.066,225.401 61.422,226.370 59.994 L 227.281 58.651 224.303 54.665 L 221.324 50.680 220.660 52.244 C 215.665 64.005,210.901 86.010,209.370 104.388 C 208.962 109.280,209.410 144.162,210.014 154.564 L 210.268 158.933 212.165 159.388 C 216.148 160.344,220.079 163.711,222.181 167.969 L 223.242 170.117 223.358 184.668 L 223.473 199.219 224.781 199.219 C 230.001 199.219,236.092 203.470,238.625 208.882 C 239.861 211.523,243.400 213.190,251.621 215.002 C 253.006 215.307,253.614 216.990,252.928 218.621 C 252.363 219.965,250.723 221.082,246.949 222.692 C 243.903 223.992,243.926 223.716,246.567 227.405 C 275.320 267.549,242.049 362.556,200.546 358.821 C 172.924 356.336,147.222 310.559,148.105 265.419 L 148.242 258.378 145.523 261.904 C 122.429 291.854,92.493 292.132,77.217 262.538 C 59.551 228.313,68.232 177.974,94.788 160.642 L 98.364 158.307 96.697 156.913 C 93.301 154.075,91.737 150.506,93.234 149.009 C 93.923 148.320,93.860 148.318,99.411 149.244 C 104.016 150.013,107.481 149.591,109.237 148.049 C 112.670 145.035,118.258 143.776,122.443 145.074 C 123.507 145.404,124.423 145.629,124.478 145.574 C 124.534 145.518,125.968 142.493,127.665 138.850 C 135.687 121.631,137.947 119.089,145.337 118.983 L 147.960 118.945 149.805 114.844 C 162.411 86.809,183.538 60.371,208.008 42.009 C 216.545 35.602,219.973 33.518,222.427 33.243 C 222.623 33.221,223.639 33.752,224.685 34.424 M210.937 47.791 C 191.142 65.408,178.751 83.768,163.503 118.076 C 160.459 124.924,160.570 123.864,162.687 125.816 C 167.849 130.573,167.982 135.027,163.285 145.703 C 161.820 149.033,159.882 153.516,158.977 155.664 C 158.073 157.813,157.265 159.685,157.182 159.826 C 157.099 159.967,157.807 160.537,158.756 161.093 C 162.503 163.289,165.117 167.679,165.586 172.563 C 165.895 175.779,167.205 177.512,172.070 181.140 C 176.752 184.631,175.324 187.092,168.611 187.104 C 165.476 187.109,165.176 187.174,165.415 187.793 C 166.562 190.758,167.273 195.283,167.466 200.850 L 167.679 206.973 169.144 205.120 C 171.573 202.047,177.018 199.219,180.504 199.219 L 181.641 199.219 181.643 186.816 C 181.646 167.970,183.058 163.952,190.955 160.304 L 193.388 159.180 193.137 150.391 C 192.088 113.729,199.148 77.341,212.862 48.730 C 214.072 46.206,215.057 44.141,215.051 44.141 C 215.044 44.141,213.193 45.783,210.937 47.791 " stroke="none" fill="#fbfbfb" fill-rule="evenodd"></path><path id="path3" d="M221.656 34.277 C 221.213 34.350,220.570 34.886,220.227 35.467 C 217.782 39.610,215.342 44.120,215.649 43.931 C 216.257 43.555,216.089 44.009,214.306 47.566 C 211.074 54.016,204.904 69.357,204.215 72.656 C 204.103 73.193,203.359 75.742,202.562 78.320 C 201.145 82.905,200.747 84.546,198.440 95.313 C 195.171 110.567,192.975 139.303,193.927 154.374 L 194.215 158.943 196.424 158.866 L 198.633 158.789 198.494 147.852 C 197.967 106.402,206.543 68.665,223.134 39.423 L 225.257 35.683 223.859 34.914 C 223.090 34.491,222.099 34.204,221.656 34.277 M214.210 37.813 C 214.523 38.319,212.841 39.536,212.057 39.371 C 211.764 39.309,211.563 39.466,211.612 39.719 C 211.742 40.394,207.929 43.083,207.332 42.739 C 207.059 42.581,206.968 42.599,207.130 42.777 C 207.291 42.955,207.132 43.423,206.776 43.816 C 206.066 44.601,205.256 44.800,205.701 44.080 C 205.875 43.799,205.808 43.735,205.523 43.912 C 205.271 44.067,205.157 44.343,205.270 44.525 C 205.382 44.707,204.738 45.486,203.839 46.256 C 202.229 47.634,201.249 48.089,201.795 47.205 C 201.969 46.924,201.902 46.860,201.616 47.037 C 201.365 47.192,201.251 47.468,201.363 47.649 C 201.475 47.830,200.555 48.870,199.318 49.960 C 197.131 51.888,196.147 52.458,196.720 51.465 C 196.874 51.196,196.533 51.403,195.961 51.924 C 195.390 52.444,194.922 52.955,194.922 53.058 C 194.922 53.162,195.299 52.911,195.760 52.502 C 197.892 50.610,195.963 52.888,193.314 55.392 C 190.339 58.203,188.877 59.154,190.645 57.129 C 191.161 56.538,190.400 57.192,188.955 58.582 C 187.510 59.973,186.328 61.194,186.328 61.296 C 186.328 61.398,186.943 60.885,187.695 60.156 C 188.447 59.427,189.063 59.021,189.063 59.253 C 189.063 59.485,188.403 60.277,187.598 61.012 C 186.792 61.748,185.434 63.131,184.579 64.085 C 183.725 65.039,182.846 65.825,182.626 65.831 C 181.894 65.850,181.282 66.425,181.471 66.917 C 181.694 67.499,177.812 71.969,177.337 71.676 C 177.156 71.563,176.880 71.677,176.724 71.929 C 176.548 72.215,176.611 72.282,176.893 72.108 C 177.141 71.954,177.344 71.988,177.344 72.182 C 177.344 72.610,175.775 74.076,175.512 73.893 C 175.410 73.822,175.208 73.894,175.065 74.054 C 174.922 74.213,175.024 74.218,175.293 74.063 C 175.562 73.908,175.781 73.941,175.781 74.135 C 175.781 74.565,174.540 75.727,174.089 75.721 C 173.910 75.718,173.646 75.847,173.503 76.007 C 173.359 76.166,173.462 76.171,173.730 76.016 C 174.597 75.518,174.257 76.181,172.433 78.551 C 171.421 79.867,170.465 80.758,170.225 80.610 C 169.973 80.454,169.914 80.530,170.078 80.796 C 170.409 81.332,168.068 84.873,167.581 84.572 C 167.394 84.457,167.114 84.568,166.959 84.820 C 166.782 85.105,166.845 85.172,167.127 84.998 C 167.375 84.845,167.578 84.827,167.578 84.958 C 167.578 85.518,163.165 91.771,162.890 91.601 C 162.724 91.499,162.612 91.720,162.642 92.094 C 162.671 92.468,162.482 92.732,162.221 92.680 C 161.960 92.629,161.826 92.805,161.923 93.071 C 162.173 93.754,160.385 96.702,159.801 96.572 C 159.535 96.513,159.426 96.642,159.560 96.859 C 159.694 97.075,158.761 99.145,157.487 101.458 C 154.581 106.735,151.815 112.226,150.161 116.004 L 148.883 118.922 150.072 119.422 C 151.536 120.037,151.953 120.050,151.953 119.480 C 151.953 118.889,158.804 105.215,160.939 101.545 C 173.739 79.542,189.121 61.512,207.705 46.730 C 212.096 43.238,215.632 38.424,214.376 37.648 C 214.119 37.489,214.051 37.556,214.210 37.813 M219.648 99.219 C 219.648 100.400,219.722 100.884,219.811 100.293 C 219.901 99.702,219.901 98.735,219.811 98.145 C 219.722 97.554,219.648 98.037,219.648 99.219 M209.109 130.859 C 209.109 132.256,209.180 132.827,209.267 132.129 C 209.354 131.431,209.354 130.288,209.267 129.590 C 209.180 128.892,209.109 129.463,209.109 130.859 M193.466 131.250 C 193.466 132.217,193.542 132.612,193.635 132.129 C 193.728 131.646,193.728 130.854,193.635 130.371 C 193.542 129.888,193.466 130.283,193.466 131.250 M209.474 146.289 C 209.478 147.148,209.558 147.454,209.651 146.968 C 209.745 146.482,209.741 145.779,209.643 145.406 C 209.546 145.032,209.469 145.430,209.474 146.289 M193.466 157.422 C 193.466 158.389,193.542 158.784,193.635 158.301 C 193.728 157.817,193.728 157.026,193.635 156.543 C 193.542 156.060,193.466 156.455,193.466 157.422 M168.359 178.320 C 169.088 179.072,169.772 179.688,169.880 179.688 C 169.987 179.688,169.479 179.072,168.750 178.320 C 168.021 177.568,167.337 176.953,167.230 176.953 C 167.122 176.953,167.631 177.568,168.359 178.320 " stroke="none" fill="#d7ce95" fill-rule="evenodd"></path><path id="path4" d="M204.083 54.004 L 202.539 55.664 204.199 54.120 C 205.743 52.684,206.039 52.344,205.743 52.344 C 205.680 52.344,204.932 53.091,204.083 54.004 M209.083 127.148 C 209.087 128.008,209.167 128.313,209.261 127.827 C 209.354 127.342,209.351 126.638,209.253 126.265 C 209.155 125.892,209.079 126.289,209.083 127.148 M166.513 135.156 C 166.513 136.123,166.589 136.519,166.682 136.035 C 166.775 135.552,166.775 134.761,166.682 134.277 C 166.589 133.794,166.513 134.189,166.513 135.156 M193.125 144.336 C 193.126 147.559,193.186 148.825,193.259 147.150 C 193.333 145.475,193.332 142.839,193.258 141.291 C 193.184 139.743,193.124 141.113,193.125 144.336 " stroke="none" fill="#dce8bc" fill-rule="evenodd"></path><path id="path5" d="M298.438 72.778 C 298.438 72.846,299.009 73.417,299.707 74.048 L 300.977 75.195 299.829 73.926 C 298.760 72.742,298.438 72.477,298.438 72.778 M209.091 120.703 C 209.091 121.670,209.167 122.065,209.260 121.582 C 209.353 121.099,209.353 120.308,209.260 119.824 C 209.167 119.341,209.091 119.736,209.091 120.703 M209.091 124.219 C 209.091 125.186,209.167 125.581,209.260 125.098 C 209.353 124.614,209.353 123.823,209.260 123.340 C 209.167 122.856,209.091 123.252,209.091 124.219 M181.816 186.328 C 181.816 193.525,181.868 196.470,181.933 192.871 C 181.997 189.272,181.997 183.384,181.933 179.785 C 181.868 176.187,181.816 179.131,181.816 186.328 " stroke="none" fill="#ede1c9" fill-rule="evenodd"></path><path id="path6" d="M87.671 166.504 L 86.523 167.773 87.793 166.626 C 88.491 165.995,89.063 165.424,89.063 165.357 C 89.063 165.055,88.740 165.321,87.671 166.504 M95.083 174.150 C 86.364 177.164,78.089 190.197,76.127 204.005 C 73.828 220.183,92.793 221.760,101.993 206.156 C 103.492 203.615,104.763 200.143,107.680 190.625 C 111.717 177.449,106.245 170.291,95.083 174.150 M68.111 221.680 C 68.112 223.828,68.178 224.657,68.257 223.522 C 68.336 222.387,68.336 220.629,68.255 219.616 C 68.175 218.603,68.110 219.531,68.111 221.680 M181.641 231.596 C 181.641 231.861,181.465 231.969,181.250 231.836 C 181.035 231.703,180.859 231.799,180.859 232.050 C 180.859 232.300,180.596 232.404,180.273 232.281 C 179.951 232.157,179.688 232.221,179.688 232.422 C 179.688 232.623,179.395 232.676,179.037 232.539 C 178.603 232.372,178.480 232.439,178.667 232.742 C 178.850 233.037,178.737 233.114,178.341 232.962 C 178.007 232.834,177.734 232.918,177.734 233.149 C 177.734 233.380,177.471 233.468,177.148 233.344 C 176.826 233.221,176.563 233.309,176.563 233.540 C 176.563 233.771,176.299 233.859,175.977 233.735 C 175.654 233.611,175.391 233.717,175.391 233.969 C 175.391 234.250,175.088 234.332,174.609 234.180 C 174.128 234.027,173.828 234.109,173.828 234.394 C 173.828 234.664,173.503 234.772,173.047 234.652 C 172.617 234.540,172.266 234.627,172.266 234.845 C 172.266 235.072,171.850 235.137,171.289 234.996 C 170.720 234.853,170.313 234.919,170.313 235.153 C 170.313 235.404,169.724 235.462,168.750 235.306 C 167.637 235.128,167.188 235.195,167.188 235.538 C 167.188 235.866,166.677 235.971,165.585 235.867 C 160.801 235.411,155.230 247.611,154.315 260.547 C 153.255 275.524,154.450 281.693,159.226 285.896 C 165.976 291.838,178.345 286.376,183.669 275.104 C 187.168 267.694,188.640 246.175,186.193 238.187 C 185.265 235.158,181.641 229.910,181.641 231.596 M148.196 267.383 C 148.197 269.961,148.260 270.965,148.336 269.614 C 148.413 268.262,148.412 266.153,148.335 264.926 C 148.258 263.699,148.195 264.805,148.196 267.383 M257.165 267.383 C 257.167 269.102,257.235 269.756,257.318 268.837 C 257.400 267.919,257.399 266.512,257.315 265.712 C 257.231 264.912,257.164 265.664,257.165 267.383 " stroke="none" fill="#ec847c" fill-rule="evenodd"></path><path id="path7" d="M68.059 216.797 C 68.059 217.549,68.140 217.856,68.238 217.480 C 68.336 217.104,68.336 216.489,68.238 216.113 C 68.140 215.737,68.059 216.045,68.059 216.797 M201.855 358.869 C 202.339 358.963,203.130 358.963,203.613 358.869 C 204.097 358.776,203.701 358.700,202.734 358.700 C 201.768 358.700,201.372 358.776,201.855 358.869 " stroke="none" fill="#f4bcbc" fill-rule="evenodd"></path><path id="path8" d="" stroke="none" fill="#fcdcdc" fill-rule="evenodd"></path></g></svg>